<svg width="174" height="28" viewBox="0 0 174 28" fill="none" xmlns="http://www.w3.org/2000/svg">
<path d="M18 11.1683V23.1649C18 23.5074 17.945 23.8465 17.8382 24.1629C17.7315 24.4793 17.5749 24.7668 17.3776 25.009C17.1803 25.2511 16.946 25.4433 16.6882 25.5742C16.4304 25.7053 16.1541 25.7728 15.875 25.7728H3.125C2.56141 25.7728 2.02091 25.498 1.6224 25.009C1.22388 24.5199 1 23.8566 1 23.1649V7.51713C1 6.82546 1.22388 6.16211 1.6224 5.67303C2.02091 5.18394 2.56141 4.90918 3.125 4.90918H12.0224" stroke="#FFB342" stroke-width="2" stroke-linecap="round" stroke-linejoin="round"/>
<path d="M21.7779 0.352351C21.698 0.244599 21.6011 0.157848 21.4931 0.0973406C21.3851 0.0368333 21.2682 0.0038261 21.1496 0.00031333C21.0309 -0.00319943 20.9128 0.0228553 20.8026 0.0769031C20.6923 0.130951 20.5921 0.21187 20.5081 0.31477L19.8316 1.1409C19.7496 1.24158 19.7036 1.37808 19.7036 1.52042C19.7036 1.66275 19.7496 1.79926 19.8316 1.89993L20.4518 2.65962C20.4924 2.70974 20.5407 2.74951 20.5939 2.77666C20.6472 2.80379 20.7042 2.81776 20.7618 2.81776C20.8195 2.81776 20.8765 2.80379 20.9297 2.77666C20.9829 2.74951 21.0313 2.70974 21.0719 2.65962L21.7314 1.85429C22.065 1.44559 22.0962 0.779847 21.7779 0.352351ZM18.4639 2.81868L8.59178 14.9121C8.53193 14.9852 8.48842 15.0761 8.46545 15.1758L8.00882 16.8448C7.99788 16.8901 7.9971 16.9382 8.00657 16.984C8.01605 17.0298 8.03541 17.0716 8.06263 17.105C8.08985 17.1384 8.12391 17.1622 8.16121 17.1737C8.19852 17.1854 8.23769 17.1844 8.2746 17.171L9.63357 16.6106C9.71486 16.5824 9.78888 16.529 9.84849 16.4556L19.7031 4.3394C19.7943 4.22632 19.8454 4.07367 19.8454 3.9146C19.8454 3.75552 19.7943 3.60287 19.7031 3.48979L19.159 2.81868C19.0667 2.70577 18.9417 2.64237 18.8114 2.64237C18.6811 2.64237 18.5562 2.70577 18.4639 2.81868Z" fill="#FFB342"/>
<path d="M35.4635 20H33.8016L38.6084 6.90909H40.2447L45.0516 20H43.3896L39.4777 8.98011H39.3754L35.4635 20ZM36.0771 14.8864H42.776V16.2926H36.0771V14.8864ZM47.2461 20V10.1818H48.7035V11.6648H48.8057C48.9847 11.179 49.3086 10.7848 49.7773 10.4822C50.2461 10.1797 50.7745 10.0284 51.3626 10.0284C51.4733 10.0284 51.6118 10.0305 51.778 10.0348C51.9442 10.0391 52.0699 10.0455 52.1552 10.054V11.5881C52.104 11.5753 51.9868 11.5561 51.8036 11.5305C51.6246 11.5007 51.435 11.4858 51.2347 11.4858C50.7574 11.4858 50.3313 11.5859 49.9563 11.7862C49.5856 11.9822 49.2915 12.255 49.0742 12.6044C48.8611 12.9496 48.7546 13.3437 48.7546 13.7869V20H47.2461ZM58.121 20.2045C57.175 20.2045 56.3589 19.9957 55.6728 19.5781C54.991 19.1562 54.4647 18.5682 54.094 17.8139C53.7275 17.0554 53.5443 16.1733 53.5443 15.1676C53.5443 14.1619 53.7275 13.2756 54.094 12.5085C54.4647 11.7372 54.9804 11.1364 55.6409 10.706C56.3056 10.2713 57.0812 10.054 57.9676 10.054C58.4789 10.054 58.9839 10.1392 59.4825 10.3097C59.9811 10.4801 60.4349 10.7571 60.844 11.1406C61.2531 11.5199 61.5791 12.0227 61.822 12.6491C62.0649 13.2756 62.1863 14.0469 62.1863 14.9631V15.6023H54.6181V14.2983H60.6522C60.6522 13.7443 60.5414 13.25 60.3199 12.8153C60.1025 12.3807 59.7914 12.0376 59.3866 11.7862C58.986 11.5348 58.513 11.4091 57.9676 11.4091C57.3667 11.4091 56.8468 11.5582 56.4079 11.8565C55.9733 12.1506 55.6387 12.5341 55.4044 13.0071C55.17 13.4801 55.0528 13.9872 55.0528 14.5284V15.3977C55.0528 16.1392 55.1806 16.7678 55.4363 17.2834C55.6963 17.7947 56.0564 18.1847 56.5166 18.4531C56.9768 18.7173 57.5116 18.8494 58.121 18.8494C58.5173 18.8494 58.8753 18.794 59.1949 18.6832C59.5187 18.5682 59.7978 18.3977 60.0322 18.1719C60.2666 17.9418 60.4477 17.6562 60.5755 17.3153L62.0329 17.7244C61.8795 18.2188 61.6217 18.6534 61.2595 19.0284C60.8973 19.3991 60.4498 19.6889 59.9172 19.8977C59.3845 20.1023 58.7858 20.2045 58.121 20.2045ZM67.7303 20.2301C67.1081 20.2301 66.5435 20.1129 66.0364 19.8786C65.5293 19.6399 65.1266 19.2969 64.8283 18.8494C64.53 18.3977 64.3808 17.8523 64.3808 17.2131C64.3808 16.6506 64.4916 16.1946 64.7132 15.8452C64.9348 15.4915 65.231 15.2145 65.6017 15.0142C65.9725 14.8139 66.3816 14.6648 66.829 14.5668C67.2807 14.4645 67.7345 14.3835 68.1905 14.3239C68.7871 14.2472 69.2708 14.1896 69.6415 14.1513C70.0165 14.1087 70.2892 14.0384 70.4597 13.9403C70.6344 13.8423 70.7218 13.6719 70.7218 13.429V13.3778C70.7218 12.7472 70.5492 12.2571 70.204 11.9077C69.8631 11.5582 69.3453 11.3835 68.6507 11.3835C67.9306 11.3835 67.3659 11.5412 66.9568 11.8565C66.5478 12.1719 66.2601 12.5085 66.0939 12.8665L64.6621 12.3551C64.9178 11.7585 65.2587 11.294 65.6848 10.9616C66.1152 10.625 66.584 10.3906 67.0911 10.2585C67.6024 10.1222 68.1053 10.054 68.5996 10.054C68.9149 10.054 69.2772 10.0923 69.6862 10.169C70.0996 10.2415 70.498 10.3928 70.8816 10.6229C71.2693 10.853 71.5911 11.2003 71.8468 11.6648C72.1024 12.1293 72.2303 12.7514 72.2303 13.5312V20H70.7218V18.6705H70.6451C70.5428 18.8835 70.3723 19.1115 70.1337 19.3544C69.8951 19.5973 69.5776 19.804 69.1813 19.9744C68.785 20.1449 68.3013 20.2301 67.7303 20.2301ZM67.9604 18.875C68.557 18.875 69.0598 18.7578 69.4689 18.5234C69.8823 18.2891 70.1933 17.9865 70.4022 17.6158C70.6152 17.245 70.7218 16.8551 70.7218 16.446V15.0653C70.6578 15.142 70.5172 15.2124 70.2999 15.2763C70.0868 15.3359 69.8397 15.3892 69.5584 15.4361C69.2814 15.4787 69.0108 15.517 68.7466 15.5511C68.4867 15.581 68.2757 15.6065 68.1138 15.6278C67.7218 15.679 67.3553 15.7621 67.0144 15.8771C66.6777 15.9879 66.405 16.1562 66.1962 16.3821C65.9916 16.6037 65.8894 16.9062 65.8894 17.2898C65.8894 17.8139 66.0833 18.2102 66.471 18.4787C66.8631 18.7429 67.3595 18.875 67.9604 18.875ZM92.0162 13.4545C92.0162 14.8352 91.7669 16.0284 91.2683 17.0341C90.7697 18.0398 90.0858 18.8153 89.2164 19.3608C88.3471 19.9062 87.3542 20.179 86.2377 20.179C85.1213 20.179 84.1284 19.9062 83.2591 19.3608C82.3897 18.8153 81.7058 18.0398 81.2072 17.0341C80.7086 16.0284 80.4593 14.8352 80.4593 13.4545C80.4593 12.0739 80.7086 10.8807 81.2072 9.875C81.7058 8.86932 82.3897 8.09375 83.2591 7.5483C84.1284 7.00284 85.1213 6.73011 86.2377 6.73011C87.3542 6.73011 88.3471 7.00284 89.2164 7.5483C90.0858 8.09375 90.7697 8.86932 91.2683 9.875C91.7669 10.8807 92.0162 12.0739 92.0162 13.4545ZM90.4821 13.4545C90.4821 12.321 90.2924 11.3643 89.9132 10.5845C89.5382 9.80469 89.0289 9.21449 88.3855 8.81392C87.7463 8.41335 87.0304 8.21307 86.2377 8.21307C85.4451 8.21307 84.7271 8.41335 84.0836 8.81392C83.4444 9.21449 82.9352 9.80469 82.5559 10.5845C82.1809 11.3643 81.9934 12.321 81.9934 13.4545C81.9934 14.5881 82.1809 15.5447 82.5559 16.3246C82.9352 17.1044 83.4444 17.6946 84.0836 18.0952C84.7271 18.4957 85.4451 18.696 86.2377 18.696C87.0304 18.696 87.7463 18.4957 88.3855 18.0952C89.0289 17.6946 89.5382 17.1044 89.9132 16.3246C90.2924 15.5447 90.4821 14.5881 90.4821 13.4545ZM99.2093 10.1818V11.4602H93.9166V10.1818H99.2093ZM95.5019 20V8.8267C95.5019 8.2642 95.634 7.79545 95.8982 7.42045C96.1624 7.04545 96.5054 6.7642 96.9273 6.5767C97.3492 6.3892 97.7945 6.29545 98.2632 6.29545C98.634 6.29545 98.9365 6.32528 99.1709 6.38494C99.4053 6.4446 99.58 6.5 99.695 6.55114L99.2604 7.85511C99.1837 7.82954 99.0771 7.79758 98.9408 7.75923C98.8087 7.72088 98.634 7.7017 98.4166 7.7017C97.9181 7.7017 97.558 7.82741 97.3364 8.07884C97.1191 8.33026 97.0104 8.69886 97.0104 9.18466V20H95.5019ZM114.47 10.1818C114.393 9.53409 114.082 9.03125 113.536 8.6733C112.991 8.31534 112.322 8.13636 111.529 8.13636C110.95 8.13636 110.443 8.23011 110.008 8.41761C109.578 8.60511 109.241 8.86293 108.998 9.19105C108.759 9.51918 108.64 9.89204 108.64 10.3097C108.64 10.6591 108.723 10.9595 108.889 11.2109C109.06 11.4581 109.277 11.6648 109.541 11.831C109.805 11.9929 110.082 12.1271 110.372 12.2337C110.662 12.3359 110.928 12.419 111.171 12.483L112.501 12.8409C112.842 12.9304 113.221 13.054 113.639 13.2116C114.06 13.3693 114.463 13.5845 114.847 13.8572C115.234 14.1257 115.554 14.4709 115.805 14.8928C116.057 15.3146 116.183 15.8324 116.183 16.446C116.183 17.1534 115.997 17.7926 115.627 18.3636C115.26 18.9347 114.723 19.3885 114.016 19.7251C113.313 20.0618 112.458 20.2301 111.453 20.2301C110.515 20.2301 109.703 20.0788 109.017 19.7763C108.335 19.4737 107.798 19.0518 107.406 18.5107C107.019 17.9695 106.799 17.3409 106.748 16.625H108.384C108.427 17.1193 108.593 17.5284 108.883 17.8523C109.177 18.1719 109.548 18.4105 109.995 18.5682C110.447 18.7216 110.933 18.7983 111.453 18.7983C112.058 18.7983 112.601 18.7003 113.082 18.5043C113.564 18.304 113.945 18.027 114.227 17.6733C114.508 17.3153 114.649 16.8977 114.649 16.4205C114.649 15.9858 114.527 15.6321 114.284 15.3594C114.041 15.0866 113.722 14.8651 113.325 14.6946C112.929 14.5241 112.501 14.375 112.041 14.2472L110.43 13.7869C109.407 13.4929 108.597 13.0732 108.001 12.5277C107.404 11.9822 107.106 11.2685 107.106 10.3864C107.106 9.65341 107.304 9.0142 107.7 8.46875C108.101 7.91903 108.638 7.4929 109.311 7.19034C109.989 6.88352 110.745 6.73011 111.58 6.73011C112.424 6.73011 113.174 6.88139 113.83 7.18395C114.487 7.48224 115.006 7.89133 115.39 8.41122C115.778 8.93111 115.982 9.52131 116.004 10.1818H114.47ZM123.061 20.2045C122.115 20.2045 121.299 19.9957 120.613 19.5781C119.931 19.1562 119.405 18.5682 119.034 17.8139C118.667 17.0554 118.484 16.1733 118.484 15.1676C118.484 14.1619 118.667 13.2756 119.034 12.5085C119.405 11.7372 119.92 11.1364 120.581 10.706C121.246 10.2713 122.021 10.054 122.908 10.054C123.419 10.054 123.924 10.1392 124.422 10.3097C124.921 10.4801 125.375 10.7571 125.784 11.1406C126.193 11.5199 126.519 12.0227 126.762 12.6491C127.005 13.2756 127.126 14.0469 127.126 14.9631V15.6023H119.558V14.2983H125.592C125.592 13.7443 125.481 13.25 125.26 12.8153C125.042 12.3807 124.731 12.0376 124.327 11.7862C123.926 11.5348 123.453 11.4091 122.908 11.4091C122.307 11.4091 121.787 11.5582 121.348 11.8565C120.913 12.1506 120.579 12.5341 120.344 13.0071C120.11 13.4801 119.993 13.9872 119.993 14.5284V15.3977C119.993 16.1392 120.121 16.7678 120.376 17.2834C120.636 17.7947 120.996 18.1847 121.457 18.4531C121.917 18.7173 122.452 18.8494 123.061 18.8494C123.457 18.8494 123.815 18.794 124.135 18.6832C124.459 18.5682 124.738 18.3977 124.972 18.1719C125.207 17.9418 125.388 17.6562 125.515 17.3153L126.973 17.7244C126.819 18.2188 126.562 18.6534 126.199 19.0284C125.837 19.3991 125.39 19.6889 124.857 19.8977C124.324 20.1023 123.726 20.2045 123.061 20.2045ZM129.781 20V10.1818H131.238V11.6648H131.341C131.52 11.179 131.843 10.7848 132.312 10.4822C132.781 10.1797 133.309 10.0284 133.897 10.0284C134.008 10.0284 134.147 10.0305 134.313 10.0348C134.479 10.0391 134.605 10.0455 134.69 10.054V11.5881C134.639 11.5753 134.522 11.5561 134.339 11.5305C134.16 11.5007 133.97 11.4858 133.77 11.4858C133.292 11.4858 132.866 11.5859 132.491 11.7862C132.12 11.9822 131.826 12.255 131.609 12.6044C131.396 12.9496 131.29 13.3437 131.29 13.7869V20H129.781ZM145.166 10.1818L141.535 20H140.001L136.37 10.1818H138.006L140.717 18.0057H140.819L143.529 10.1818H145.166ZM147.517 20V10.1818H149.025V20H147.517ZM148.284 8.54545C147.99 8.54545 147.736 8.44531 147.523 8.24503C147.314 8.04474 147.21 7.80398 147.21 7.52273C147.21 7.24148 147.314 7.00071 147.523 6.80043C147.736 6.60014 147.99 6.5 148.284 6.5C148.578 6.5 148.829 6.60014 149.038 6.80043C149.251 7.00071 149.358 7.24148 149.358 7.52273C149.358 7.80398 149.251 8.04474 149.038 8.24503C148.829 8.44531 148.578 8.54545 148.284 8.54545ZM156.137 20.2045C155.216 20.2045 154.424 19.9872 153.759 19.5526C153.094 19.1179 152.583 18.5192 152.225 17.7564C151.867 16.9936 151.688 16.1222 151.688 15.142C151.688 14.1449 151.871 13.2649 152.238 12.5021C152.608 11.7351 153.124 11.1364 153.784 10.706C154.449 10.2713 155.225 10.054 156.111 10.054C156.802 10.054 157.424 10.1818 157.978 10.4375C158.532 10.6932 158.985 11.0511 159.339 11.5114C159.693 11.9716 159.912 12.5085 159.998 13.1222H158.489C158.374 12.6747 158.118 12.2784 157.722 11.9332C157.33 11.5838 156.802 11.4091 156.137 11.4091C155.549 11.4091 155.033 11.5625 154.59 11.8693C154.151 12.1719 153.808 12.6001 153.561 13.1541C153.318 13.7038 153.196 14.3494 153.196 15.0909C153.196 15.8494 153.316 16.5099 153.554 17.0724C153.797 17.6349 154.138 18.0717 154.577 18.3828C155.02 18.6939 155.54 18.8494 156.137 18.8494C156.529 18.8494 156.885 18.7812 157.204 18.6449C157.524 18.5085 157.794 18.3125 158.016 18.0568C158.238 17.8011 158.395 17.4943 158.489 17.1364H159.998C159.912 17.7159 159.701 18.2379 159.365 18.7024C159.032 19.1626 158.591 19.5291 158.042 19.8018C157.496 20.0703 156.861 20.2045 156.137 20.2045ZM166.679 20.2045C165.733 20.2045 164.917 19.9957 164.231 19.5781C163.549 19.1562 163.023 18.5682 162.652 17.8139C162.286 17.0554 162.103 16.1733 162.103 15.1676C162.103 14.1619 162.286 13.2756 162.652 12.5085C163.023 11.7372 163.539 11.1364 164.199 10.706C164.864 10.2713 165.64 10.054 166.526 10.054C167.037 10.054 167.542 10.1392 168.041 10.3097C168.539 10.4801 168.993 10.7571 169.402 11.1406C169.811 11.5199 170.137 12.0227 170.38 12.6491C170.623 13.2756 170.745 14.0469 170.745 14.9631V15.6023H163.176V14.2983H169.211C169.211 13.7443 169.1 13.25 168.878 12.8153C168.661 12.3807 168.35 12.0376 167.945 11.7862C167.544 11.5348 167.071 11.4091 166.526 11.4091C165.925 11.4091 165.405 11.5582 164.966 11.8565C164.532 12.1506 164.197 12.5341 163.963 13.0071C163.728 13.4801 163.611 13.9872 163.611 14.5284V15.3977C163.611 16.1392 163.739 16.7678 163.995 17.2834C164.255 17.7947 164.615 18.1847 165.075 18.4531C165.535 18.7173 166.07 18.8494 166.679 18.8494C167.076 18.8494 167.434 18.794 167.753 18.6832C168.077 18.5682 168.356 18.3977 168.59 18.1719C168.825 17.9418 169.006 17.6562 169.134 17.3153L170.591 17.7244C170.438 18.2188 170.18 18.6534 169.818 19.0284C169.456 19.3991 169.008 19.6889 168.475 19.8977C167.943 20.1023 167.344 20.2045 166.679 20.2045Z" fill="#1C2752"/>
</svg>
